{
    "accessors" : [
        {
            "bufferView" : 0,
            "componentType" : 5123,
            "count" : 2211,
            "max" : [
                968
            ],
            "min" : [
                0
            ],
            "type" : "SCALAR"
        },
        {
            "bufferView" : 1,
            "componentType" : 5126,
            "count" : 969,
            "max" : [
                151.03245544433594,
                2.8061509132385254,
                237.12301635742188
            ],
            "min" : [
                -201.76756286621094,
                1.8061509132385254,
                -106.37701416015625
            ],
            "type" : "VEC3"
        },
        {
            "bufferView" : 2,
            "componentType" : 5126,
            "count" : 969,
            "max" : [
                0.062375884503126144,
                1.0,
                0.16676050424575806
            ],
            "min" : [
                -0.45646077394485474,
                0.8860897421836853,
                -0.08055125921964645
            ],
            "type" : "VEC3"
        }
    ],
    "asset" : {
        "generator" : "Khronos Blender glTF 2.0 exporter",
        "version" : "2.0"
    },
    "bufferViews" : [
        {
            "buffer" : 0,
            "byteLength" : 4422,
            "byteOffset" : 0,
            "target" : 34963
        },
        {
            "buffer" : 0,
            "byteLength" : 11628,
            "byteOffset" : 4424,
            "target" : 34962
        },
        {
            "buffer" : 0,
            "byteLength" : 11628,
            "byteOffset" : 16052,
            "target" : 34962
        }
    ],
    "buffers" : [
        {
            "byteLength" : 27680,
            "uri" : "data:application/octet-stream;base64,"
        }
    ],
    "meshes" : [
        {
            "name" : "Navmesh",
            "primitives" : [
                {
                    "attributes" : {
                        "NORMAL" : 2,
                        "POSITION" : 1
                    },
                    "indices" : 0
                }
            ]
        }
    ],
    "nodes" : [
        {
            "mesh" : 0,
            "name" : "Navmesh"
        }
    ],
    "scene" : 0,
    "scenes" : [
        {
            "name" : "AuxScene",
            "nodes" : [
                0
            ]
        }
    ]
}
