{
    "accessors" : [
        {
            "bufferView" : 0,
            "componentType" : 5123,
            "count" : 2283,
            "max" : [
                1410
            ],
            "min" : [
                0
            ],
            "type" : "SCALAR"
        },
        {
            "bufferView" : 1,
            "componentType" : 5126,
            "count" : 1411,
            "max" : [
                151.01309204101562,
                2.9439287185668945,
                237.11842346191406
            ],
            "min" : [
                -133.6869354248047,
                1.9439287185668945,
                -106.38160705566406
            ],
            "type" : "VEC3"
        },
        {
            "bufferView" : 2,
            "componentType" : 5126,
            "count" : 1411,
            "max" : [
                0.7969487905502319,
                1.0,
                0.6643475294113159
            ],
            "min" : [
                -0.7994322776794434,
                0.01671273447573185,
                -0.9801658391952515
            ],
            "type" : "VEC3"
        }
    ],
    "asset" : {
        "generator" : "Khronos Blender glTF 2.0 exporter",
        "version" : "2.0"
    },
    "bufferViews" : [
        {
            "buffer" : 0,
            "byteLength" : 4566,
            "byteOffset" : 0,
            "target" : 34963
        },
        {
            "buffer" : 0,
            "byteLength" : 16932,
            "byteOffset" : 4568,
            "target" : 34962
        },
        {
            "buffer" : 0,
            "byteLength" : 16932,
            "byteOffset" : 21500,
            "target" : 34962
        }
    ],
    "buffers" : [
        {
            "byteLength" : 38432,
            "uri" : "data:application/octet-stream;base64,"
        }
    ],
    "meshes" : [
        {
            "name" : "Navmesh",
            "primitives" : [
                {
                    "attributes" : {
                        "NORMAL" : 2,
                        "POSITION" : 1
                    },
                    "indices" : 0
                }
            ]
        }
    ],
    "nodes" : [
        {
            "mesh" : 0,
            "name" : "Navmesh"
        }
    ],
    "scene" : 0,
    "scenes" : [
        {
            "name" : "AuxScene",
            "nodes" : [
                0
            ]
        }
    ]
}
