{
    "accessors" : [
        {
            "bufferView" : 0,
            "componentType" : 5123,
            "count" : 855,
            "max" : [
                394
            ],
            "min" : [
                0
            ],
            "type" : "SCALAR"
        },
        {
            "bufferView" : 1,
            "componentType" : 5126,
            "count" : 395,
            "max" : [
                76.05631256103516,
                2.9439268112182617,
                64.45985412597656
            ],
            "min" : [
                -47.84368896484375,
                1.9439268112182617,
                -104.14014434814453
            ],
            "type" : "VEC3"
        },
        {
            "bufferView" : 2,
            "componentType" : 5126,
            "count" : 395,
            "max" : [
                0.2567664682865143,
                1.0,
                0.1300877332687378
            ],
            "min" : [
                -0.17654746770858765,
                0.9579954147338867,
                -0.06614544987678528
            ],
            "type" : "VEC3"
        }
    ],
    "asset" : {
        "generator" : "Khronos Blender glTF 2.0 exporter",
        "version" : "2.0"
    },
    "bufferViews" : [
        {
            "buffer" : 0,
            "byteLength" : 1710,
            "byteOffset" : 0,
            "target" : 34963
        },
        {
            "buffer" : 0,
            "byteLength" : 4740,
            "byteOffset" : 1712,
            "target" : 34962
        },
        {
            "buffer" : 0,
            "byteLength" : 4740,
            "byteOffset" : 6452,
            "target" : 34962
        }
    ],
    "buffers" : [
        {
            "byteLength" : 11192,
            "uri" : "data:application/octet-stream;base64,"
        }
    ],
    "meshes" : [
        {
            "name" : "Navmesh",
            "primitives" : [
                {
                    "attributes" : {
                        "NORMAL" : 2,
                        "POSITION" : 1
                    },
                    "indices" : 0
                }
            ]
        }
    ],
    "nodes" : [
        {
            "mesh" : 0,
            "name" : "Navmesh"
        }
    ],
    "scene" : 0,
    "scenes" : [
        {
            "name" : "AuxScene",
            "nodes" : [
                0
            ]
        }
    ]
}
