{
  "accessors": [
    {
      "bufferView": 2,
      "componentType": 5126,
      "count": 65533,
      "max": [
        6.499324798583984,
        27.044776916503906,
        6.499842643737793
      ],
      "min": [
        -6.499775409698486,
        -20.955223083496094,
        -6.499757766723633
      ],
      "type": "VEC3"
    },
    {
      "bufferView": 2,
      "byteOffset": 786396,
      "componentType": 5126,
      "count": 65533,
      "max": [
        0.5383870601654053,
        0.8624336123466492,
        0.5381362438201904
      ],
      "min": [
        -0.5353726744651794,
        -1.0,
        -0.5402101874351501
      ],
      "type": "VEC3"
    },
    {
      "bufferView": 1,
      "componentType": 5126,
      "count": 65533,
      "max": [
        0.9950000047683716,
        0.9901999831199646
      ],
      "min": [
        0.061900001019239426,
        0.03359999880194664
      ],
      "type": "VEC2"
    },
    {
      "bufferView": 0,
      "componentType": 5125,
      "count": 65676,
      "type": "SCALAR"
    },
    {
      "bufferView": 2,
      "byteOffset": 1572792,
      "componentType": 5126,
      "count": 65532,
      "max": [
        1.2159245014190674,
        27.044776916503906,
        1.2156424522399902
      ],
      "min": [
        -1.2155755758285522,
        -20.955223083496094,
        -1.2157576084136963
      ],
      "type": "VEC3"
    },
    {
      "bufferView": 2,
      "byteOffset": 2359176,
      "componentType": 5126,
      "count": 65532,
      "max": [
        0.5367390513420105,
        0.8606281280517578,
        0.5362529158592224
      ],
      "min": [
        -0.5372188091278076,
        -0.862050473690033,
        -0.5362632870674133
      ],
      "type": "VEC3"
    },
    {
      "bufferView": 1,
      "byteOffset": 524264,
      "componentType": 5126,
      "count": 65532,
      "max": [
        0.9902999997138977,
        0.9876000285148621
      ],
      "min": [
        0.004999999888241291,
        0.03350000083446503
      ],
      "type": "VEC2"
    },
    {
      "bufferView": 0,
      "byteOffset": 262704,
      "componentType": 5125,
      "count": 65532,
      "type": "SCALAR"
    },
    {
      "bufferView": 2,
      "byteOffset": 3145560,
      "componentType": 5126,
      "count": 65532,
      "max": [
        1.2160245180130005,
        27.044776916503906,
        1.2158424854278564
      ],
      "min": [
        -1.2155755758285522,
        -20.955223083496094,
        -1.2157576084136963
      ],
      "type": "VEC3"
    },
    {
      "bufferView": 2,
      "byteOffset": 3931944,
      "componentType": 5126,
      "count": 65532,
      "max": [
        0.9999998807907104,
        0.8610135912895203,
        1.0
      ],
      "min": [
        -1.0,
        -0.8621509671211243,
        -1.0
      ],
      "type": "VEC3"
    },
    {
      "bufferView": 1,
      "byteOffset": 1048520,
      "componentType": 5126,
      "count": 65532,
      "max": [
        0.9943000078201294,
        0.9930999875068665
      ],
      "min": [
        0.004999999888241291,
        0.03909999877214432
      ],
      "type": "VEC2"
    },
    {
      "bufferView": 0,
      "byteOffset": 524832,
      "componentType": 5125,
      "count": 65532,
      "type": "SCALAR"
    },
    {
      "bufferView": 2,
      "byteOffset": 4718328,
      "componentType": 5126,
      "count": 65533,
      "max": [
        7.40102481842041,
        52.544776916503906,
        7.400742530822754
      ],
      "min": [
        -7.399975299835205,
        -39.955223083496094,
        -7.400157451629639
      ],
      "type": "VEC3"
    },
    {
      "bufferView": 2,
      "byteOffset": 5504724,
      "componentType": 5126,
      "count": 65533,
      "max": [
        1.0,
        1.0,
        0.9999799132347107
      ],
      "min": [
        -0.9999989867210388,
        -8.845746378938202e-06,
        -0.9999953508377075
      ],
      "type": "VEC3"
    },
    {
      "bufferView": 1,
      "byteOffset": 1572776,
      "componentType": 5126,
      "count": 65533,
      "max": [
        0.8783000111579895,
        0.9275000095367432
      ],
      "min": [
        0.004999999888241291,
        0.04230000078678131
      ],
      "type": "VEC2"
    },
    {
      "bufferView": 0,
      "byteOffset": 786960,
      "componentType": 5125,
      "count": 65829,
      "type": "SCALAR"
    },
    {
      "bufferView": 2,
      "byteOffset": 6291120,
      "componentType": 5126,
      "count": 65532,
      "max": [
        7.6683244705200195,
        52.54307556152344,
        7.708642482757568
      ],
      "min": [
        -7.71357536315918,
        38.244773864746094,
        -7.712657451629639
      ],
      "type": "VEC3"
    },
    {
      "bufferView": 2,
      "byteOffset": 7077504,
      "componentType": 5126,
      "count": 65532,
      "max": [
        0.9999944567680359,
        0.9959660172462463,
        0.9999918937683105
      ],
      "min": [
        -0.911733865737915,
        -1.0,
        -0.9999409317970276
      ],
      "type": "VEC3"
    },
    {
      "bufferView": 1,
      "byteOffset": 2097040,
      "componentType": 5126,
      "count": 65532,
      "max": [
        0.853600025177002,
        0.9830999970436096
      ],
      "min": [
        0.0066999997943639755,
        0.10459999740123749
      ],
      "type": "VEC2"
    },
    {
      "bufferView": 0,
      "byteOffset": 1050276,
      "componentType": 5125,
      "count": 65532,
      "type": "SCALAR"
    },
    {
      "bufferView": 2,
      "byteOffset": 7863888,
      "componentType": 5126,
      "count": 65532,
      "max": [
        7.4908246994018555,
        52.544776916503906,
        7.749942302703857
      ],
      "min": [
        -7.749075412750244,
        -32.955223083496094,
        -7.748157501220703
      ],
      "type": "VEC3"
    },
    {
      "bufferView": 2,
      "byteOffset": 8650272,
      "componentType": 5126,
      "count": 65532,
      "max": [
        0.9999944567680359,
        1.0,
        0.9999918341636658
      ],
      "min": [
        -0.9999231100082397,
        -1.0,
        -0.9999406933784485
      ],
      "type": "VEC3"
    },
    {
      "bufferView": 1,
      "byteOffset": 2621296,
      "componentType": 5126,
      "count": 65532,
      "max": [
        0.965399980545044,
        0.9902999997138977
      ],
      "min": [
        0.004999999888241291,
        0.004999999888241291
      ],
      "type": "VEC2"
    },
    {
      "bufferView": 0,
      "byteOffset": 1312404,
      "componentType": 5125,
      "count": 65724,
      "type": "SCALAR"
    },
    {
      "bufferView": 2,
      "byteOffset": 9436656,
      "componentType": 5126,
      "count": 65532,
      "max": [
        1.2159245014190674,
        17.044776916503906,
        1.2158424854278564
      ],
      "min": [
        -1.2155755758285522,
        -32.955223083496094,
        -1.2157576084136963
      ],
      "type": "VEC3"
    },
    {
      "bufferView": 2,
      "byteOffset": 10223040,
      "componentType": 5126,
      "count": 65532,
      "max": [
        1.0,
        0.007822384126484394,
        1.0
      ],
      "min": [
        -0.9999994039535522,
        -0.8620015978813171,
        -0.9999992251396179
      ],
      "type": "VEC3"
    },
    {
      "bufferView": 1,
      "byteOffset": 3145552,
      "componentType": 5126,
      "count": 65532,
      "max": [
        0.9944000244140625,
        0.9933000206947327
      ],
      "min": [
        0.09390000253915787,
        0.05420000106096268
      ],
      "type": "VEC2"
    },
    {
      "bufferView": 0,
      "byteOffset": 1575300,
      "componentType": 5125,
      "count": 65532,
      "type": "SCALAR"
    },
    {
      "bufferView": 2,
      "byteOffset": 11009424,
      "componentType": 5126,
      "count": 65533,
      "max": [
        7.741424560546875,
        29.544776916503906,
        7.75004243850708
      ],
      "min": [
        -7.740975379943848,
        -39.955223083496094,
        -7.74995756149292
      ],
      "type": "VEC3"
    },
    {
      "bufferView": 2,
      "byteOffset": 11795820,
      "componentType": 5126,
      "count": 65533,
      "max": [
        1.0,
        1.0,
        1.0
      ],
      "min": [
        -1.0,
        -1.0,
        -1.0
      ],
      "type": "VEC3"
    },
    {
      "bufferView": 1,
      "byteOffset": 3669808,
      "componentType": 5126,
      "count": 65533,
      "max": [
        0.9933000206947327,
        0.9939000010490417
      ],
      "min": [
        0.004999999888241291,
        0.004999999888241291
      ],
      "type": "VEC2"
    },
    {
      "bufferView": 0,
      "byteOffset": 1837428,
      "componentType": 5125,
      "count": 66492,
      "type": "SCALAR"
    },
    {
      "bufferView": 2,
      "byteOffset": 12582216,
      "componentType": 5126,
      "count": 48902,
      "max": [
        6.500224590301514,
        29.544776916503906,
        6.499842643737793
      ],
      "min": [
        -6.499775409698486,
        -20.955223083496094,
        -6.499757766723633
      ],
      "type": "VEC3"
    },
    {
      "bufferView": 2,
      "byteOffset": 13169040,
      "componentType": 5126,
      "count": 48902,
      "max": [
        1.0,
        1.0,
        1.0
      ],
      "min": [
        -1.0,
        -0.009344139136373997,
        -1.0
      ],
      "type": "VEC3"
    },
    {
      "bufferView": 1,
      "byteOffset": 4194072,
      "componentType": 5126,
      "count": 48902,
      "max": [
        0.8051000237464905,
        0.984000027179718
      ],
      "min": [
        0.004999999888241291,
        0.004999999888241291
      ],
      "type": "VEC2"
    },
    {
      "bufferView": 0,
      "byteOffset": 2103396,
      "componentType": 5125,
      "count": 48969,
      "type": "SCALAR"
    },
    {
      "bufferView": 2,
      "byteOffset": 13755864,
      "componentType": 5126,
      "count": 65534,
      "max": [
        7.750124454498291,
        52.48887634277344,
        7.749942302703857
      ],
      "min": [
        -7.749675273895264,
        -36.955223083496094,
        -7.7493577003479
      ],
      "type": "VEC3"
    },
    {
      "bufferView": 2,
      "byteOffset": 14542272,
      "componentType": 5126,
      "count": 65534,
      "max": [
        0.9999943971633911,
        1.0,
        0.9999918937683105
      ],
      "min": [
        -0.9999934434890747,
        -1.0,
        -0.9999896883964539
      ],
      "type": "VEC3"
    },
    {
      "bufferView": 1,
      "byteOffset": 4585288,
      "componentType": 5126,
      "count": 65534,
      "max": [
        0.9950000047683716,
        0.9936000108718872
      ],
      "min": [
        0.004999999888241291,
        0.004999999888241291
      ],
      "type": "VEC2"
    },
    {
      "bufferView": 0,
      "byteOffset": 2299272,
      "componentType": 5125,
      "count": 66201,
      "type": "SCALAR"
    },
    {
      "bufferView": 2,
      "byteOffset": 15328680,
      "componentType": 5126,
      "count": 3878,
      "max": [
        7.7495245933532715,
        12.74477767944336,
        7.749942302703857
      ],
      "min": [
        -7.749675273895264,
        -36.955223083496094,
        -7.7493577003479
      ],
      "type": "VEC3"
    },
    {
      "bufferView": 2,
      "byteOffset": 15375216,
      "componentType": 5126,
      "count": 3878,
      "max": [
        0.9819092750549316,
        1.0,
        0.9876086711883545
      ],
      "min": [
        -0.9819234013557434,
        -1.0,
        -0.9998235106468201
      ],
      "type": "VEC3"
    },
    {
      "bufferView": 1,
      "byteOffset": 5109560,
      "componentType": 5126,
      "count": 3878,
      "max": [
        0.7943999767303467,
        0.9936000108718872
      ],
      "min": [
        0.004999999888241291,
        0.004999999888241291
      ],
      "type": "VEC2"
    },
    {
      "bufferView": 0,
      "byteOffset": 2564076,
      "componentType": 5125,
      "count": 4473,
      "type": "SCALAR"
    },
    {
      "bufferView": 2,
      "byteOffset": 15421752,
      "componentType": 5126,
      "count": 16641,
      "max": [
        0.9025702476501465,
        0.9260680079460144,
        2.7411773204803467
      ],
      "min": [
        -0.9025702476501465,
        -0.9025702476501465,
        -2.7411773204803467
      ],
      "type": "VEC3"
    },
    {
      "bufferView": 2,
      "byteOffset": 15621444,
      "componentType": 5126,
      "count": 16641,
      "max": [
        1.0,
        0.9805906414985657,
        0.003233143361285329
      ],
      "min": [
        -1.0,
        -1.0,
        -0.003232273506000638
      ],
      "type": "VEC3"
    },
    {
      "bufferView": 1,
      "byteOffset": 5140584,
      "componentType": 5126,
      "count": 16641,
      "max": [
        1.0000001192092896,
        0.9517012238502502
      ],
      "min": [
        0.0,
        0.0
      ],
      "type": "VEC2"
    },
    {
      "bufferView": 0,
      "byteOffset": 2581968,
      "componentType": 5125,
      "count": 98304,
      "type": "SCALAR"
    }
  ],
  "asset": {
    "extras": {
      "author": "Huggoz (https://sketchfab.com/Huggoz)",
      "license": "CC-BY-4.0 (http://creativecommons.org/licenses/by/4.0/)",
      "source": "https://sketchfab.com/3d-models/lip-balm-d17895b882b1422ab90b369e4bffc4b5",
      "title": "Lip Balm"
    },
    "generator": "Sketchfab-15.37.0",
    "version": "2.0"
  },
  "bufferViews": [
    {
      "buffer": 0,
      "byteLength": 2975184,
      "name": "floatBufferViews",
      "target": 34963
    },
    {
      "buffer": 0,
      "byteLength": 5273712,
      "byteOffset": 2975184,
      "byteStride": 8,
      "name": "floatBufferViews",
      "target": 34962
    },
    {
      "buffer": 0,
      "byteLength": 15821136,
      "byteOffset": 8248896,
      "byteStride": 12,
      "name": "floatBufferViews",
      "target": 34962
    }
  ],
  "buffers": [
    {
      "byteLength": 24070032,
      "uri": "scene.bin"
    }
  ],
  "images": [
    {
      "uri": "textures/AguaFresca1_baseColor.png"
    }
  ],
  "materials": [
    {
      "doubleSided": true,
      "name": "Object001_mtl",
      "pbrMetallicRoughness": {
        "baseColorFactor": [
          0.9393269793169939,
          0.940665205793594,
          0.9032871314003554,
          1.0
        ],
        "metallicFactor": 0.0,
        "roughnessFactor": 0.7942850873450281
      }
    },
    {
      "doubleSided": true,
      "name": "Object002_mtl",
      "pbrMetallicRoughness": {
        "baseColorFactor": [
          0.940665205793594,
          0.9396614317493368,
          0.8849288641111505,
          1.0
        ],
        "metallicFactor": 0.0,
        "roughnessFactor": 0.4163791737270057
      }
    },
    {
      "doubleSided": true,
      "name": "AguaFresca1",
      "pbrMetallicRoughness": {
        "baseColorTexture": {
          "index": 0
        },
        "metallicFactor": 0.0,
        "roughnessFactor": 0.24571198693176977
      }
    }
  ],
  "meshes": [
    {
      "name": "New object_Object001_mtl_0",
      "primitives": [
        {
          "attributes": {
            "NORMAL": 1,
            "POSITION": 0,
            "TEXCOORD_0": 2
          },
          "indices": 3,
          "material": 0,
          "mode": 4
        }
      ]
    },
    {
      "name": "New object_Object001_mtl_0",
      "primitives": [
        {
          "attributes": {
            "NORMAL": 5,
            "POSITION": 4,
            "TEXCOORD_0": 6
          },
          "indices": 7,
          "material": 0,
          "mode": 4
        }
      ]
    },
    {
      "name": "New object_Object001_mtl_0",
      "primitives": [
        {
          "attributes": {
            "NORMAL": 9,
            "POSITION": 8,
            "TEXCOORD_0": 10
          },
          "indices": 11,
          "material": 0,
          "mode": 4
        }
      ]
    },
    {
      "name": "New object_Object001_mtl_0",
      "primitives": [
        {
          "attributes": {
            "NORMAL": 13,
            "POSITION": 12,
            "TEXCOORD_0": 14
          },
          "indices": 15,
          "material": 0,
          "mode": 4
        }
      ]
    },
    {
      "name": "New object_Object001_mtl_0",
      "primitives": [
        {
          "attributes": {
            "NORMAL": 17,
            "POSITION": 16,
            "TEXCOORD_0": 18
          },
          "indices": 19,
          "material": 0,
          "mode": 4
        }
      ]
    },
    {
      "name": "New object_Object001_mtl_0",
      "primitives": [
        {
          "attributes": {
            "NORMAL": 21,
            "POSITION": 20,
            "TEXCOORD_0": 22
          },
          "indices": 23,
          "material": 0,
          "mode": 4
        }
      ]
    },
    {
      "name": "New object_Object001_mtl_0",
      "primitives": [
        {
          "attributes": {
            "NORMAL": 25,
            "POSITION": 24,
            "TEXCOORD_0": 26
          },
          "indices": 27,
          "material": 0,
          "mode": 4
        }
      ]
    },
    {
      "name": "New object_Object001_mtl_0",
      "primitives": [
        {
          "attributes": {
            "NORMAL": 29,
            "POSITION": 28,
            "TEXCOORD_0": 30
          },
          "indices": 31,
          "material": 0,
          "mode": 4
        }
      ]
    },
    {
      "name": "New object_Object001_mtl_0",
      "primitives": [
        {
          "attributes": {
            "NORMAL": 33,
            "POSITION": 32,
            "TEXCOORD_0": 34
          },
          "indices": 35,
          "material": 0,
          "mode": 4
        }
      ]
    },
    {
      "name": "New object_Object002_mtl_0",
      "primitives": [
        {
          "attributes": {
            "NORMAL": 37,
            "POSITION": 36,
            "TEXCOORD_0": 38
          },
          "indices": 39,
          "material": 1,
          "mode": 4
        }
      ]
    },
    {
      "name": "New object_Object002_mtl_0",
      "primitives": [
        {
          "attributes": {
            "NORMAL": 41,
            "POSITION": 40,
            "TEXCOORD_0": 42
          },
          "indices": 43,
          "material": 1,
          "mode": 4
        }
      ]
    },
    {
      "name": "Plane.001_AguaFresca1_0",
      "primitives": [
        {
          "attributes": {
            "NORMAL": 45,
            "POSITION": 44,
            "TEXCOORD_0": 46
          },
          "indices": 47,
          "material": 2,
          "mode": 4
        }
      ]
    }
  ],
  "nodes": [
    {
      "children": [
        1
      ],
      "matrix": [
        0.0181818176060915,
        0.0,
        0.0,
        0.0,
        0.0,
        4.0371745071635655e-18,
        -0.0181818176060915,
        0.0,
        0.0,
        0.0181818176060915,
        4.0371745071635655e-18,
        0.0,
        0.0,
        0.0,
        0.0,
        1.0
      ],
      "name": "Sketchfab_model"
    },
    {
      "children": [
        2
      ],
      "matrix": [
        0.009999999776482582,
        0.0,
        0.0,
        0.0,
        0.0,
        0.0,
        0.009999999776482582,
        0.0,
        0.0,
        -0.009999999776482582,
        0.0,
        0.0,
        0.0,
        0.0,
        0.0,
        1.0
      ],
      "name": "7a53d433f4e14f01b352fed6bce085c4.fbx"
    },
    {
      "children": [
        3
      ],
      "name": "RootNode"
    },
    {
      "children": [
        4,
        5,
        6,
        7,
        8,
        9,
        10,
        11,
        12,
        13,
        14,
        15
      ],
      "matrix": [
        12.06630705158792,
        3.0084678803924545,
        -1.3005470591627294e-07,
        0.0,
        2.5769664972238295e-07,
        -4.959735362387957e-07,
        12.435739517211902,
        0.0,
        3.0084773396940196,
        -12.066344990778827,
        -5.435834635211807e-07,
        0.0,
        31.13471031188965,
        351.6809387207031,
        -51.091270446777344,
        1.0
      ],
      "name": "New object"
    },
    {
      "mesh": 0,
      "name": "New object_Object001_mtl_0"
    },
    {
      "mesh": 1,
      "name": "New object_Object001_mtl_0"
    },
    {
      "mesh": 2,
      "name": "New object_Object001_mtl_0"
    },
    {
      "mesh": 3,
      "name": "New object_Object001_mtl_0"
    },
    {
      "mesh": 4,
      "name": "New object_Object001_mtl_0"
    },
    {
      "mesh": 5,
      "name": "New object_Object001_mtl_0"
    },
    {
      "mesh": 6,
      "name": "New object_Object001_mtl_0"
    },
    {
      "mesh": 7,
      "name": "New object_Object001_mtl_0"
    },
    {
      "mesh": 8,
      "name": "New object_Object001_mtl_0"
    },
    {
      "mesh": 9,
      "name": "New object_Object002_mtl_0"
    },
    {
      "mesh": 10,
      "name": "New object_Object002_mtl_0"
    },
    {
      "children": [
        16
      ],
      "matrix": [
        -8.459081538487686,
        -1.1366405177268514e-06,
        -2.764855655381234,
        0.0,
        -2.765020982014709,
        1.3613597153864718e-06,
        8.459587355660737,
        0.0,
        -8.158747787987092e-07,
        11.043498039245385,
        -2.043844870269066e-06,
        0.0,
        0.00022411346435546875,
        -6.380814552307129,
        0.022930562496185303,
        1.0
      ],
      "name": "Plane.001"
    },
    {
      "mesh": 11,
      "name": "Plane.001_AguaFresca1_0"
    }
  ],
  "samplers": [
    {
      "magFilter": 9729,
      "minFilter": 9987,
      "wrapS": 10497,
      "wrapT": 10497
    }
  ],
  "scene": 0,
  "scenes": [
    {
      "name": "Sketchfab_Scene",
      "nodes": [
        0
      ]
    }
  ],
  "textures": [
    {
      "sampler": 0,
      "source": 0
    }
  ]
}
