{
    "accessors" : [
        {
            "bufferView" : 0,
            "componentType" : 5123,
            "count" : 19062,
            "max" : [
                14941
            ],
            "min" : [
                0
            ],
            "type" : "SCALAR"
        },
        {
            "bufferView" : 1,
            "componentType" : 5126,
            "count" : 14942,
            "max" : [
                117.72273254394531,
                133.19198608398438,
                119.69129180908203
            ],
            "min" : [
                -119.57727813720703,
                -0.20800495147705078,
                -135.6087188720703
            ],
            "type" : "VEC3"
        },
        {
            "bufferView" : 2,
            "componentType" : 5126,
            "count" : 14942,
            "max" : [
                0.9973829388618469,
                1.0,
                0.9844241142272949
            ],
            "min" : [
                -0.97894686460495,
                9.228274961969873e-07,
                -0.9946917295455933
            ],
            "type" : "VEC3"
        }
    ],
    "asset" : {
        "generator" : "Khronos Blender glTF 2.0 exporter",
        "version" : "2.0"
    },
    "bufferViews" : [
        {
            "buffer" : 0,
            "byteLength" : 38124,
            "byteOffset" : 0,
            "target" : 34963
        },
        {
            "buffer" : 0,
            "byteLength" : 179304,
            "byteOffset" : 38124,
            "target" : 34962
        },
        {
            "buffer" : 0,
            "byteLength" : 179304,
            "byteOffset" : 217428,
            "target" : 34962
        }
    ],
    "buffers" : [
        {
            "byteLength" : 396732,
            "uri" : "data:application/octet-stream;base64,"
        }
    ],
    "meshes" : [
        {
            "name" : "Navmesh",
            "primitives" : [
                {
                    "attributes" : {
                        "NORMAL" : 2,
                        "POSITION" : 1
                    },
                    "indices" : 0
                }
            ]
        }
    ],
    "nodes" : [
        {
            "mesh" : 0,
            "name" : "Navmesh"
        }
    ],
    "scene" : 0,
    "scenes" : [
        {
            "name" : "OSG_Scene",
            "nodes" : [
                0
            ]
        }
    ]
}
