{
  "accessors": [
    {
      "bufferView": 1,
      "componentType": 5126,
      "count": 65534,
      "max": [
        0.86357522010803223,
        0.99964559078216553,
        1.912470817565918
      ],
      "min": [
        -1.1350075006484985,
        -0.99964559078216553,
        0.18211470544338226
      ],
      "type": "VEC3"
    },
    {
      "bufferView": 1,
      "byteOffset": 786408,
      "componentType": 5126,
      "count": 65534,
      "max": [
        0.99998551607131958,
        0.99999254941940308,
        0.99999994039535522
      ],
      "min": [
        -0.99988389015197754,
        -0.99999558925628662,
        -0.97717326879501343
      ],
      "type": "VEC3"
    },
    {
      "bufferView": 0,
      "componentType": 5125,
      "count": 309843,
      "max": [
        65533
      ],
      "min": [
        0
      ],
      "type": "SCALAR"
    },
    {
      "bufferView": 1,
      "byteOffset": 1572816,
      "componentType": 5126,
      "count": 65532,
      "max": [
        0.85520094633102417,
        0.95017290115356445,
        1.9120410680770874
      ],
      "min": [
        -0.65051728487014771,
        -0.95017892122268677,
        0.18480965495109558
      ],
      "type": "VEC3"
    },
    {
      "bufferView": 1,
      "byteOffset": 2359200,
      "componentType": 5126,
      "count": 65532,
      "max": [
        0.99999463558197021,
        0.9999963641166687,
        0.99999904632568359
      ],
      "min": [
        -0.99999392032623291,
        -0.99999910593032837,
        -0.99601626396179199
      ],
      "type": "VEC3"
    },
    {
      "bufferView": 0,
      "byteOffset": 1239372,
      "componentType": 5125,
      "count": 309420,
      "max": [
        65531
      ],
      "min": [
        0
      ],
      "type": "SCALAR"
    },
    {
      "bufferView": 1,
      "byteOffset": 3145584,
      "componentType": 5126,
      "count": 65532,
      "max": [
        0.84186172485351562,
        0.98715084791183472,
        1.9116500616073608
      ],
      "min": [
        -0.93803328275680542,
        -0.9960256814956665,
        0.18244220316410065
      ],
      "type": "VEC3"
    },
    {
      "bufferView": 1,
      "byteOffset": 3931968,
      "componentType": 5126,
      "count": 65532,
      "max": [
        0.99999707937240601,
        0.99999988079071045,
        0.99999904632568359
      ],
      "min": [
        -0.99997830390930176,
        -0.99997389316558838,
        -0.99984300136566162
      ],
      "type": "VEC3"
    },
    {
      "bufferView": 0,
      "byteOffset": 2477052,
      "componentType": 5125,
      "count": 270879,
      "max": [
        65531
      ],
      "min": [
        0
      ],
      "type": "SCALAR"
    },
    {
      "bufferView": 1,
      "byteOffset": 4718352,
      "componentType": 5126,
      "count": 65532,
      "max": [
        0.86048763990402222,
        0.99292582273483276,
        1.896109938621521
      ],
      "min": [
        -1.133516788482666,
        -0.85132277011871338,
        0.18355906009674072
      ],
      "type": "VEC3"
    },
    {
      "bufferView": 1,
      "byteOffset": 5504736,
      "componentType": 5126,
      "count": 65532,
      "max": [
        0.99999332427978516,
        0.99667817354202271,
        0.99999994039535522
      ],
      "min": [
        -0.99998438358306885,
        -0.99999785423278809,
        -0.99974960088729858
      ],
      "type": "VEC3"
    },
    {
      "bufferView": 0,
      "byteOffset": 3560568,
      "componentType": 5125,
      "count": 320865,
      "max": [
        65531
      ],
      "min": [
        0
      ],
      "type": "SCALAR"
    },
    {
      "bufferView": 1,
      "byteOffset": 6291120,
      "componentType": 5126,
      "count": 35858,
      "max": [
        0.86152935028076172,
        0.97275322675704956,
        1.9101718664169312
      ],
      "min": [
        -1.1307394504547119,
        -0.92614477872848511,
        0.18405507504940033
      ],
      "type": "VEC3"
    },
    {
      "bufferView": 1,
      "byteOffset": 6721416,
      "componentType": 5126,
      "count": 35858,
      "max": [
        0.99999707937240601,
        0.99336755275726318,
        0.99999988079071045
      ],
      "min": [
        -0.99999868869781494,
        -0.99999302625656128,
        -0.98892492055892944
      ],
      "type": "VEC3"
    },
    {
      "bufferView": 0,
      "byteOffset": 4844028,
      "componentType": 5125,
      "count": 97593,
      "max": [
        35857
      ],
      "min": [
        0
      ],
      "type": "SCALAR"
    }
  ],
  "asset": {
    "extras": {
      "author": "danielebaratta (https://sketchfab.com/danielebaratta)",
      "license": "CC-BY-4.0 (http://creativecommons.org/licenses/by/4.0/)",
      "source": "https://sketchfab.com/models/2e783110334b454d9717385fed52a1ef",
      "title": "Dog"
    },
    "generator": "Sketchfab-3.18.2",
    "version": "2.0"
  },
  "bufferViews": [
    {
      "buffer": 0,
      "byteLength": 5234400,
      "byteOffset": 0,
      "name": "floatBufferViews",
      "target": 34963
    },
    {
      "buffer": 0,
      "byteLength": 7151712,
      "byteOffset": 5234400,
      "byteStride": 12,
      "name": "floatBufferViews",
      "target": 34962
    }
  ],
  "buffers": [
    {
      "byteLength": 12386112,
      "uri": "scene.bin"
    }
  ],
  "materials": [
    {
      "doubleSided": true,
      "emissiveFactor": [
        0,
        0,
        0
      ],
      "name": "Scene_-_Root",
      "pbrMetallicRoughness": {
        "baseColorFactor": [
          0.5,
          0.5,
          0.5,
          1
        ],
        "metallicFactor": 0,
        "roughnessFactor": 0.59999999999999998
      }
    }
  ],
  "meshes": [
    {
      "primitives": [
        {
          "attributes": {
            "NORMAL": 1,
            "POSITION": 0
          },
          "indices": 2,
          "material": 0,
          "mode": 4
        }
      ]
    },
    {
      "primitives": [
        {
          "attributes": {
            "NORMAL": 4,
            "POSITION": 3
          },
          "indices": 5,
          "material": 0,
          "mode": 4
        }
      ]
    },
    {
      "primitives": [
        {
          "attributes": {
            "NORMAL": 7,
            "POSITION": 6
          },
          "indices": 8,
          "material": 0,
          "mode": 4
        }
      ]
    },
    {
      "primitives": [
        {
          "attributes": {
            "NORMAL": 10,
            "POSITION": 9
          },
          "indices": 11,
          "material": 0,
          "mode": 4
        }
      ]
    },
    {
      "primitives": [
        {
          "attributes": {
            "NORMAL": 13,
            "POSITION": 12
          },
          "indices": 14,
          "material": 0,
          "mode": 4
        }
      ]
    }
  ],
  "nodes": [
    {
      "children": [
        1
      ],
      "name": "RootNode (gltf orientation matrix)",
      "rotation": [
        -0.70710678118654746,
        -0,
        -0,
        0.70710678118654757
      ]
    },
    {
      "children": [
        2
      ],
      "name": "RootNode (model correction matrix)"
    },
    {
      "children": [
        3,
        4,
        5,
        6,
        7
      ],
      "name": "Dog.stl.cleaner.gles"
    },
    {
      "mesh": 0,
      "name": ""
    },
    {
      "mesh": 1,
      "name": ""
    },
    {
      "mesh": 2,
      "name": ""
    },
    {
      "mesh": 3,
      "name": ""
    },
    {
      "mesh": 4,
      "name": ""
    }
  ],
  "scene": 0,
  "scenes": [
    {
      "name": "OSG_Scene",
      "nodes": [
        0
      ]
    }
  ]
}

