{
    "accessors" : [
        {
            "bufferView" : 0,
            "componentType" : 5123,
            "count" : 2964,
            "max" : [
                1928
            ],
            "min" : [
                0
            ],
            "type" : "SCALAR"
        },
        {
            "bufferView" : 1,
            "componentType" : 5126,
            "count" : 1929,
            "max" : [
                151.0343017578125,
                4.9439287185668945,
                237.12301635742188
            ],
            "min" : [
                -135.46572875976562,
                1.9439287185668945,
                -106.37701416015625
            ],
            "type" : "VEC3"
        },
        {
            "bufferView" : 2,
            "componentType" : 5126,
            "count" : 1929,
            "max" : [
                0.8054971098899841,
                1.0,
                0.8396511077880859
            ],
            "min" : [
                -0.8561607003211975,
                0.34984445571899414,
                -0.8369781970977783
            ],
            "type" : "VEC3"
        }
    ],
    "asset" : {
        "generator" : "Khronos Blender glTF 2.0 exporter",
        "version" : "2.0"
    },
    "bufferViews" : [
        {
            "buffer" : 0,
            "byteLength" : 5928,
            "byteOffset" : 0,
            "target" : 34963
        },
        {
            "buffer" : 0,
            "byteLength" : 23148,
            "byteOffset" : 5928,
            "target" : 34962
        },
        {
            "buffer" : 0,
            "byteLength" : 23148,
            "byteOffset" : 29076,
            "target" : 34962
        }
    ],
    "buffers" : [
        {
            "byteLength" : 52224,
            "uri" : "data:application/octet-stream;base64,"
        }
    ],
    "meshes" : [
        {
            "name" : "Navmesh",
            "primitives" : [
                {
                    "attributes" : {
                        "NORMAL" : 2,
                        "POSITION" : 1
                    },
                    "indices" : 0
                }
            ]
        }
    ],
    "nodes" : [
        {
            "mesh" : 0,
            "name" : "Navmesh"
        }
    ],
    "scene" : 0,
    "scenes" : [
        {
            "name" : "AuxScene",
            "nodes" : [
                0
            ]
        }
    ]
}
