{
    "accessors" : [
        {
            "bufferView" : 0,
            "componentType" : 5123,
            "count" : 1461,
            "max" : [
                681
            ],
            "min" : [
                0
            ],
            "type" : "SCALAR"
        },
        {
            "bufferView" : 1,
            "componentType" : 5126,
            "count" : 682,
            "max" : [
                150.9722442626953,
                2.9439268112182617,
                237.11842346191406
            ],
            "min" : [
                -133.4277801513672,
                1.9439268112182617,
                -106.38160705566406
            ],
            "type" : "VEC3"
        },
        {
            "bufferView" : 2,
            "componentType" : 5126,
            "count" : 682,
            "max" : [
                0.25766271352767944,
                1.0,
                0.3171134293079376
            ],
            "min" : [
                -0.7134769558906555,
                0.5759766697883606,
                -0.8020802736282349
            ],
            "type" : "VEC3"
        }
    ],
    "asset" : {
        "generator" : "Khronos Blender glTF 2.0 exporter",
        "version" : "2.0"
    },
    "bufferViews" : [
        {
            "buffer" : 0,
            "byteLength" : 2922,
            "byteOffset" : 0,
            "target" : 34963
        },
        {
            "buffer" : 0,
            "byteLength" : 8184,
            "byteOffset" : 2924,
            "target" : 34962
        },
        {
            "buffer" : 0,
            "byteLength" : 8184,
            "byteOffset" : 11108,
            "target" : 34962
        }
    ],
    "buffers" : [
        {
            "byteLength" : 19292,
            "uri" : "data:application/octet-stream;base64,"
        }
    ],
    "meshes" : [
        {
            "name" : "Navmesh",
            "primitives" : [
                {
                    "attributes" : {
                        "NORMAL" : 2,
                        "POSITION" : 1
                    },
                    "indices" : 0
                }
            ]
        }
    ],
    "nodes" : [
        {
            "mesh" : 0,
            "name" : "Navmesh"
        }
    ],
    "scene" : 0,
    "scenes" : [
        {
            "name" : "AuxScene",
            "nodes" : [
                0
            ]
        }
    ]
}
